<?xml version="1.0" encoding="UTF-8"?>
<!DOCTYPE svg PUBLIC "-//W3C//DTD SVG 1.1//EN" "http://www.w3.org/Graphics/SVG/1.1/DTD/svg11.dtd">
<svg xmlns="http://www.w3.org/2000/svg" version="1.1" width="98px" height="96px" style="shape-rendering:geometricPrecision; text-rendering:geometricPrecision; image-rendering:optimizeQuality; fill-rule:evenodd; clip-rule:evenodd" xmlns:xlink="http://www.w3.org/1999/xlink">
<g><path style="opacity:0.98" fill="#dbd6d0" d="M 38.5,-0.5 C 45.1667,-0.5 51.8333,-0.5 58.5,-0.5C 79.3524,5.68595 92.3524,19.3526 97.5,40.5C 97.5,45.8333 97.5,51.1667 97.5,56.5C 93.4975,74.5055 83.1642,87.5055 66.5,95.5C 64.5,95.5 62.5,95.5 60.5,95.5C 59.7388,88.5478 59.2388,81.5478 59,74.5C 58.3645,73.0337 57.5312,71.7003 56.5,70.5C 74.2059,68.096 81.3726,58.096 78,40.5C 74.997,34.61 73.6637,28.2767 74,21.5C 72.6124,20.4464 71.1124,20.2797 69.5,21C 66.1208,22.1068 62.9541,23.6068 60,25.5C 52.3333,22.8333 44.6667,22.8333 37,25.5C 32.4723,22.8132 27.6389,21.1465 22.5,20.5C 21.3644,24.3392 21.3644,28.1726 22.5,32C 15.0353,44.4088 16.3687,55.7421 26.5,66C 30.7322,67.7996 35.0655,69.2996 39.5,70.5C 37.2947,78.5789 32.2947,80.7455 24.5,77C 22.8745,74.3723 20.8745,72.039 18.5,70C 16.9556,68.8129 15.2889,68.4795 13.5,69C 17.3177,72.9727 20.651,77.306 23.5,82C 27.7981,84.0378 32.1315,84.5378 36.5,83.5C 36.5,87.5 36.5,91.5 36.5,95.5C 34.5,95.5 32.5,95.5 30.5,95.5C 13.9973,88.331 3.66392,75.9977 -0.5,58.5C -0.5,51.8333 -0.5,45.1667 -0.5,38.5C 4.83333,17.8333 17.8333,4.83333 38.5,-0.5 Z"/></g>
</svg>
